<?xml version="1.0" encoding="UTF-8"?>
<svg width="16px" height="18px" viewBox="0 0 16 18" version="1.1" xmlns="http://www.w3.org/2000/svg" xmlns:xlink="http://www.w3.org/1999/xlink">
    <!-- Generator: sketchtool 52.4 (67378) - http://www.bohemiancoding.com/sketch -->
    <title>04E57511-5296-4192-B357-DB06ABCFDCA0</title>
    <desc>Created with sketchtool.</desc>
    <g id="Mobile" stroke="none" stroke-width="1" fill="none" fill-rule="evenodd">
        <g id="03-Drawer" transform="translate(-278.000000, -21.000000)" fill="#FFFFFF">
            <g id="Group-2" transform="translate(273.000000, 18.000000)">
                <g id="Notification" transform="translate(5.000000, 3.000000)">
                    <path d="M7.48860648,18 C7.36757862,17.9697236 7.24117175,17.9549144 7.12641941,17.906867 C6.60853971,17.6899956 6.29805095,17.278631 6.20481468,16.6740895 C6.15580587,16.3548706 6.20959603,16.0600044 6.38202337,15.7940983 C6.4023441,15.7628346 6.42236599,15.75 6.45703076,15.75 C7.21218483,15.7509873 7.96733889,15.7509873 8.72249296,15.75 C8.75924957,15.75 8.77986913,15.7631637 8.80168403,15.7970601 C9.05688845,16.1965774 9.04553275,16.6227512 8.88236927,17.0472795 C8.67796666,17.5777753 8.30233205,17.885147 7.78654419,17.9838745 C7.75666077,17.9894691 7.72677735,17.9944054 7.69659509,18 L7.48860648,18 Z" id="Fill-4"></path>
                    <path d="M15.1875,13.0883201 L15.1875,13.1680735 C15.183676,13.1786681 15.179852,13.1889683 15.1763221,13.1995629 C15.1477891,13.2869679 15.1298457,13.3793759 15.0892523,13.4606007 C14.9930638,13.6533626 14.8353969,13.793446 14.6630222,13.9164605 C14.3306274,14.1542492 13.9588159,14.3119902 13.5752382,14.4432449 C12.7545467,14.7242947 11.9059105,14.8764441 11.0490379,14.9879811 C10.7301742,15.0294765 10.4098398,15.0624373 10.0895053,15.0889236 C9.7288717,15.1183529 9.36735561,15.1421907 9.00583952,15.1574939 C8.62137936,15.1739743 8.23633089,15.1816259 7.85157657,15.1854517 C7.18002145,15.1919262 6.50876048,15.1848631 5.83838198,15.1377763 C5.41362263,15.1077584 4.98856913,15.0771519 4.56469224,15.0338908 C4.20758846,14.9976928 3.85077884,14.9509002 3.49602831,14.8952789 C2.97802192,14.8134654 2.46472202,14.7051656 1.96112922,14.5559591 C1.52019136,14.4255873 1.08896061,14.2693177 0.693322568,14.0300576 C0.479472119,13.9011573 0.283270952,13.7507736 0.13972347,13.5406484 C0.0670672658,13.43382 0.0273563847,13.31522 0,13.1910284 L0,13.0656596 C0.012648651,13.0262243 0.0188258992,12.9838461 0.0385342624,12.9482367 C0.116485251,12.8084475 0.188847301,12.6639497 0.280623559,12.5332836 C0.533890734,12.1748348 0.833634348,11.8549383 1.13955521,11.5415163 C1.59314172,11.0777106 2.05290547,10.6197908 2.50855106,10.1580452 C2.78564477,9.87728968 3.06215016,9.5962399 3.30129791,9.28075785 C3.40072219,9.1492089 3.45514081,9.01118551 3.45425834,8.83755266 C3.44719863,7.74808014 3.44837525,6.65831332 3.45249341,5.5688408 C3.45337588,5.35724417 3.47161347,5.14505895 3.49691077,4.93493378 C3.54838784,4.50732611 3.67958082,4.10208471 3.86872228,3.71567806 C4.13199071,3.179182 4.49380096,2.72067358 4.95474134,2.3395642 C5.35743909,2.00671886 5.80455419,1.75421551 6.30196975,1.59618019 C6.49728845,1.53437867 6.69731363,1.48788038 6.90057451,1.43314189 L6.90057451,1.37899199 C6.90086866,1.13973182 6.89586803,0.900471644 6.90292775,0.661505763 C6.91028161,0.410768165 7.00911758,0.205057389 7.23885239,0.0826315192 C7.39622514,-0.00153626619 7.56624654,-0.0141908633 7.74097441,0.0125897957 C8.03042261,0.057028032 8.26251065,0.300114014 8.27486515,0.591169747 C8.28574887,0.852796185 8.28192486,1.11442262 8.28457225,1.37634335 C8.28486641,1.39870962 8.28457225,1.42078159 8.28457225,1.44226498 C8.29633844,1.4455022 8.30163322,1.44756225 8.30692801,1.44844513 C8.74110031,1.52760993 9.15438763,1.66710479 9.54296595,1.87752426 C10.281,2.2768798 10.8498952,2.84545379 11.2478864,3.58412911 C11.5793988,4.19920139 11.7344183,4.85930049 11.7347124,5.5564805 C11.7353007,6.68185676 11.7353007,7.80782161 11.7341241,8.93319787 C11.7341241,9.01030263 11.7494202,9.08122723 11.7941317,9.14185158 C11.9006157,9.28605513 12.0006283,9.437616 12.12182,9.56857637 C12.4221519,9.89259291 12.7301318,10.2095464 13.040465,10.5244399 C13.6034771,11.0959568 14.1879624,11.6474618 14.6992032,12.2675371 C14.9033466,12.5150374 15.1121964,12.7628321 15.1875,13.0883201" id="Fill-1"></path>
                </g>
            </g>
        </g>
    </g>
</svg>